<?xml version="1.0" encoding="UTF-8"?> <svg xmlns="http://www.w3.org/2000/svg" width="21" height="20" viewBox="0 0 21 20" fill="none"><path d="M15.7386 18.6667C15.7386 19.4031 15.1411 20 14.404 20H6.39635C5.65926 20 5.06177 19.4031 5.06177 18.6667V18.0002L6.27019 10.3799L5.06177 1.99982V1.33331C5.06177 0.596924 5.65926 0 6.39635 0H14.404C15.1411 0 15.7386 0.596924 15.7386 1.33331V1.99982L14.9732 10.631L15.7386 17.9997V18.6667Z" fill="#343A40"></path><path d="M5.06177 18.0001H15.7386V2.00015H13.5523C13.4609 2.00015 13.3772 2.05173 13.3362 2.13367L13.1363 2.53329C13.0954 2.61508 13.0117 2.66681 12.92 2.66681H7.8803C7.78881 2.66681 7.70512 2.61508 7.66418 2.53329L7.4641 2.13351C7.42317 2.05173 7.33947 2 7.24799 2H5.06177L5.06177 18.0001Z" fill="#212529"></path><path d="M8.73197 5H7.39737C7.2131 5 7.06372 5.14924 7.06372 5.33333V6.66667C7.06372 6.85076 7.2131 7 7.39737 7H8.73197C8.91624 7 9.06562 6.85076 9.06562 6.66667V5.33333C9.06562 5.14924 8.91624 5 8.73197 5Z" fill="#63E6BE"></path><path d="M13.4065 5H12.0719C11.8877 5 11.7383 5.14924 11.7383 5.33333V6.66667C11.7383 6.85076 11.8877 7 12.0719 7H13.4065C13.5908 7 13.7402 6.85076 13.7402 6.66667V5.33333C13.7402 5.14924 13.5908 5 13.4065 5Z" fill="#FFA8A8"></path><path d="M8.73197 9H7.39737C7.2131 9 7.06372 9.14924 7.06372 9.33333V10.6667C7.06372 10.8508 7.2131 11 7.39737 11H8.73197C8.91624 11 9.06562 10.8508 9.06562 10.6667V9.33333C9.06562 9.14924 8.91624 9 8.73197 9Z" fill="#74C0FC"></path><path d="M13.4065 9H12.0719C11.8877 9 11.7383 9.14924 11.7383 9.33333V10.6667C11.7383 10.8508 11.8877 11 12.0719 11H13.4065C13.5908 11 13.7402 10.8508 13.7402 10.6667V9.33333C13.7402 9.14924 13.5908 9 13.4065 9Z" fill="#B197FC"></path><path d="M8.73197 13H7.39737C7.2131 13 7.06372 13.1492 7.06372 13.3333V14.6667C7.06372 14.8508 7.2131 15 7.39737 15H8.73197C8.91624 15 9.06562 14.8508 9.06562 14.6667V13.3333C9.06562 13.1492 8.91624 13 8.73197 13Z" fill="#FAA2C1"></path><path d="M13.4065 13H12.0719C11.8877 13 11.7383 13.1492 11.7383 13.3333V14.6667C11.7383 14.8508 11.8877 15 12.0719 15H13.4065C13.5908 15 13.7402 14.8508 13.7402 14.6667V13.3333C13.7402 13.1492 13.5908 13 13.4065 13Z" fill="#FFE066"></path><path d="M11.0771 19.3019H9.74254C9.5756 19.3019 9.44043 19.1668 9.44043 19.0001C9.44043 18.8334 9.5756 18.6982 9.74254 18.6982H11.0771C11.2439 18.6982 11.3792 18.8334 11.3792 19.0001C11.3792 19.1668 11.2439 19.3019 11.0771 19.3019Z" fill="#868E96"></path><path d="M11.4126 1.63472H9.41075C9.24381 1.63472 9.10864 1.49953 9.10864 1.3329C9.10864 1.16628 9.24381 1.03109 9.41075 1.03109H11.4126C11.5796 1.03109 11.7147 1.16628 11.7147 1.3329C11.7147 1.49953 11.5796 1.63472 11.4126 1.63472Z" fill="#868E96"></path></svg> 