<?xml version="1.0" encoding="UTF-8"?> <svg xmlns="http://www.w3.org/2000/svg" width="21" height="20" viewBox="0 0 21 20" fill="none"><path d="M15.5895 0.444146L11.9032 8.29168H15.7634V8.29278C15.842 8.29278 15.9206 8.32157 15.9815 8.38137C16.1044 8.50094 16.1066 8.69805 15.9871 8.82098L5.2195 19.9052C5.12981 19.9982 4.98809 20.0281 4.86407 19.9705C4.70907 19.8974 4.64149 19.7125 4.71457 19.5564L8.6577 11.1541H4.3879V11.153C4.3436 11.153 4.2993 11.143 4.25614 11.1231C4.1011 11.0511 4.03356 10.865 4.10665 10.71L9.04082 0.206099C9.08399 0.0865283 9.19918 0.00012207 9.33426 0.00012207H15.3071V0.00121582C15.3514 0.00121582 15.3968 0.0111768 15.4389 0.0311377C15.595 0.103091 15.6626 0.289145 15.5895 0.444146Z" fill="#FFD43B"></path><path fill-rule="evenodd" clip-rule="evenodd" d="M8.20811 16.8291L15.42 9.40453L15.987 8.82097C16.1066 8.69804 16.1043 8.50094 15.9814 8.38137C15.9205 8.32156 15.8419 8.29277 15.7633 8.29277L11.9031 8.29168L15.5895 0.444139L15.5906 0.441912C15.6614 0.286873 15.5939 0.103045 15.4389 0.0310919C15.3968 0.01117 15.3514 0.00117004 15.3071 0.00117004L14.5674 7.62939e-05L10.1492 9.40453H13.8676L5.37561 18.1468L4.71456 19.5564C4.64147 19.7125 4.70901 19.8975 4.86405 19.9705C4.98807 20.0281 5.12979 19.9982 5.21948 19.9052L8.20811 16.8291Z" fill="#FCC419"></path></svg> 