<?xml version="1.0" encoding="UTF-8"?> <svg xmlns="http://www.w3.org/2000/svg" width="21" height="20" viewBox="0 0 21 20" fill="none"><g clip-path="url(#clip0_6352_26392)"><path d="M0.663574 5.31254L10.0475 10L19.4314 5.31254V15.3125L10.0475 20L0.663574 15.3125V5.31254Z" fill="#FF6B6B"></path><path d="M10.0475 20V10L1.28917 5.62505H0.663574V15.3125L10.0475 20Z" fill="#FA5252"></path><path d="M0.0380859 4.98441L10.0476 4.57764e-05L20.0571 4.98441V5.64068L10.0476 10.625L0.0380859 5.65627V4.98441Z" fill="#FF8787"></path><path d="M15.7875 1.57814C15.459 0.9844 14.7552 0.625004 13.9263 0.625004C12.0339 0.625004 10.7045 2.39064 10.0476 3.51564C9.39075 2.39064 8.04576 0.640635 6.16896 0.640635C4.9647 0.640635 4.10449 1.37502 4.10449 2.37501C4.10449 4.15624 6.05948 5.3125 9.98506 5.3125C13.9106 5.3125 15.9907 3.82814 15.9907 2.39064C15.9908 2.1094 15.9282 1.82816 15.7875 1.57814ZM6.57564 3.50005C6.13771 3.20318 5.98133 2.87505 5.98133 2.65629C5.98133 2.39068 6.23158 2.18756 6.59128 2.18756C7.43584 2.18756 8.10834 3.29693 8.48368 4.06257C7.49839 3.98442 6.91969 3.71877 6.57564 3.50005ZM13.5197 3.50005C13.1756 3.71881 12.5969 3.98442 11.6116 4.06253C11.9713 3.29693 12.6439 2.18752 13.504 2.18752C13.8637 2.18752 14.114 2.39064 14.114 2.65625C14.114 2.87505 13.9576 3.20314 13.5197 3.50005Z" fill="#FFF5F5"></path><path d="M0.0380859 5.00004L10.0476 9.89066L20.0571 5.00004V8.2344L10.0163 13.125L0.0380859 8.2344V5.00004Z" fill="#F03E3E"></path><path d="M13.8012 8.48438V8.12503L10.0477 6.09378L6.2941 8.12503V8.48438L3.79175 7.39064V6.89065L9.92253 3.65628L10.0477 3.71877L10.1728 3.65628L16.3036 6.87502V7.37501L13.8012 8.48438Z" fill="#FFF5F5"></path><path d="M13.801 8.12503V18.1094L16.3034 16.8594V6.87502L13.801 8.12503Z" fill="#FFE3E3"></path><path d="M3.79175 16.875L6.2941 18.125V8.14066L3.79175 6.87502V16.875Z" fill="#FFE3E3"></path></g><defs><clipPath id="clip0_6352_26392"><rect width="20.019" height="20" fill="white" transform="translate(0.0380859)"></rect></clipPath></defs></svg> 