<?xml version="1.0" encoding="UTF-8"?> <svg xmlns="http://www.w3.org/2000/svg" width="73" height="12" viewBox="0 0 73 12" fill="none"><g clip-path="url(#clip0_6542_42183)"><path d="M28.5479 11.0636L28.8474 9.77101C29.4805 10.1555 30.1086 10.2617 30.8343 10.2617C31.56 10.2617 31.9613 10.0004 31.9613 9.5083C31.9613 9.10842 31.6834 8.86233 30.9267 8.60059L30.6951 8.52356C29.2282 8.01619 28.6107 7.38573 28.6107 6.24763C28.6107 4.90986 29.4753 4.11035 31.1427 4.11035C31.8376 4.11035 32.7246 4.25926 33.4947 4.63436L33.1452 5.90221C32.5429 5.5639 31.961 5.46356 31.2816 5.46356C30.6488 5.46356 30.2781 5.70892 30.2781 6.14018C30.2781 6.52459 30.5407 6.75523 31.2972 7.01673L31.5287 7.09353C33.0267 7.60113 33.6442 8.24655 33.6442 9.32332C33.6442 10.7217 32.7022 11.6144 30.9099 11.6144C30.1695 11.6159 29.2117 11.3416 28.5479 11.0636Z" fill="#0F9960"></path><path d="M33.9385 7.87976C33.9385 5.52684 35.3746 4.11227 37.6751 4.11227C38.4163 4.11227 39.4733 4.34583 40.0022 4.75012L39.6527 6.19316C39.223 5.8909 38.5244 5.66567 37.7677 5.66567C36.44 5.66567 35.6217 6.43455 35.6217 7.86458C35.6217 9.2629 36.4708 10.0637 37.7988 10.0637C38.5553 10.0637 39.1967 9.88039 39.7832 9.41895L39.983 10.9613C39.3718 11.4113 38.4471 11.6166 37.6906 11.6166C35.3739 11.6163 33.9385 10.2018 33.9385 7.87976Z" fill="#0F9960"></path><path d="M40.2988 9.54069C40.2988 8.18751 41.2253 7.35729 43.0472 7.08032L44.4832 6.84974V6.573C44.4832 5.88092 43.9581 5.55808 42.9853 5.55808C42.1518 5.55808 41.4103 5.78081 40.8476 6.24498L40.5232 4.74503C41.3593 4.30886 42.4141 4.05176 43.2329 4.05176C45.1476 4.05176 46.1667 4.92831 46.1667 6.52758V11.4631H44.6227L44.4995 10.4943C44.0827 11.2016 43.3417 11.6167 42.5077 11.6167C41.1634 11.6167 40.2988 10.8017 40.2988 9.54069ZM44.4832 8.81848V8.01845L43.2634 8.20292C42.4451 8.3256 41.9663 8.72575 41.9663 9.35598C41.9663 9.92515 42.3678 10.2786 43.0319 10.2786C43.0501 10.2786 43.0686 10.2786 43.0868 10.2786C43.8692 10.2529 44.4832 9.59788 44.4832 8.81848Z" fill="#0F9960"></path><path d="M47.0156 4.51388L48.6985 4.26536V5.23417C49.2236 4.49597 49.9648 4.11154 50.8139 4.11154C52.3425 4.11154 53.253 5.09557 53.253 6.80252V11.4628H51.5701V7.11092C51.5701 6.12665 51.1069 5.63455 50.2889 5.63455C50.2708 5.63455 50.2531 5.63455 50.235 5.63455C49.3752 5.65906 48.6985 6.37712 48.6985 7.23383V11.4628H47.0156V4.51388Z" fill="#0F9960"></path><path d="M54.1489 4.51388L55.8318 4.26536V5.23417C56.3568 4.49597 57.0981 4.11154 57.9472 4.11154C59.4762 4.11154 60.3858 5.09557 60.3858 6.80252V11.4628H58.7029V7.11092C58.7029 6.12665 58.2397 5.63455 57.4217 5.63455H57.3678C56.508 5.65906 55.8314 6.37712 55.8314 7.23383V11.4628H54.1484L54.1489 4.51388Z" fill="#0F9960"></path><path d="M60.9893 7.84884C60.9893 5.60387 62.2862 4.11227 64.3551 4.11227C66.3319 4.11227 67.5358 5.40393 67.5358 7.91045V8.40255H62.7029C62.734 9.50973 63.5218 10.2018 64.8647 10.2018C65.653 10.2018 66.6207 9.94002 67.4545 9.4327L67.0736 11.0901C66.1775 11.5207 65.5288 11.6163 64.6332 11.6163C62.3327 11.6163 60.9893 10.1863 60.9893 7.84884ZM62.7029 7.15704H65.8529C65.8529 6.12665 65.2972 5.48073 64.3551 5.48073C63.3823 5.48073 62.7647 6.15758 62.7029 7.15704Z" fill="#0F9960"></path><path d="M68.168 4.2661H69.8509V5.05556L69.9713 5.08745C70.3364 4.4447 70.8935 4.11228 71.4878 4.11228C71.7226 4.1106 71.9565 4.14165 72.1825 4.20452V6.03489C71.8649 5.92408 71.531 5.86694 71.1943 5.86588C70.6228 5.86588 70.129 6.14262 69.8509 6.52703V11.4628H68.168V4.2661Z" fill="#0F9960"></path><path d="M8.01758 7.96024C8.01758 5.57714 9.43152 4.0296 11.5293 4.0296C11.98 4.0296 12.586 4.15226 12.958 4.32399V0.625682L15.0713 0.377167V11.4579H13.1299L12.9752 10.4984C12.6178 11.1637 11.8719 11.6127 11.1105 11.6127C9.24505 11.6127 8.01758 10.1733 8.01758 7.96024ZM12.959 9.04361V6.16518C12.6791 5.964 12.2446 5.84012 11.8712 5.84012C10.8302 5.84012 10.1469 6.64477 10.1469 7.86752C10.1469 8.99603 10.7381 9.7565 11.6386 9.7565C12.1353 9.75553 12.6171 9.47686 12.959 9.04361Z" fill="white"></path><path d="M15.5078 7.96024C15.5078 5.57714 16.922 4.0296 19.0198 4.0296C19.4703 4.0296 20.0765 4.15226 20.4485 4.32399V0.625682L22.5617 0.377167V11.4579H20.6202L20.4642 10.4984C20.1068 11.1637 19.3609 11.6127 18.5995 11.6127C16.7355 11.6127 15.5078 10.1733 15.5078 7.96024ZM20.4495 9.04361V6.16518C20.1696 5.964 19.7351 5.84012 19.3617 5.84012C18.3204 5.84012 17.6373 6.64477 17.6373 7.86752C17.6373 8.99603 18.2285 9.7565 19.1291 9.7565C19.6267 9.75553 20.1075 9.47686 20.4495 9.04361Z" fill="white"></path><path d="M22.9971 11.106L23.2926 9.47509C23.9297 9.83103 24.5982 9.92551 25.2968 9.92551C25.903 9.92551 26.2292 9.77071 26.2292 9.44565C26.2292 9.18266 26.0582 9.02856 25.4212 8.79576L25.2037 8.71822C23.6341 8.16109 22.9971 7.49579 22.9971 6.30423C22.9971 4.88131 23.8839 4.0293 25.7008 4.0293C26.3846 4.0293 27.362 4.19318 28.3026 4.60532L27.8791 6.15091C27.2731 5.84126 26.54 5.71471 25.8873 5.71471C25.3746 5.71471 25.0948 5.86951 25.0948 6.16365C25.0948 6.44209 25.2813 6.58069 25.9651 6.82896L26.1826 6.90649C27.721 7.4482 28.3257 8.11351 28.3257 9.19688C28.3257 10.6826 27.3468 11.6111 25.389 11.6111C24.6758 11.6124 23.6659 11.3538 22.9971 11.106Z" fill="white"></path><path d="M2.5699 9.07162C3.78708 8.83988 4.90303 8.24025 5.76578 7.35433C5.68682 7.00453 5.50886 6.68459 5.25296 6.4324C4.38494 7.29497 3.27445 7.87485 2.06836 8.09523C2.13389 8.46326 2.30857 8.80333 2.5699 9.07162Z" fill="#0F9960"></path><path d="M2.25447 9.15203C1.96193 8.80075 1.78841 8.36635 1.75872 7.91095C1.72904 7.45555 1.84472 7.00246 2.08921 6.61648C2.33371 6.23049 2.69449 5.93137 3.11997 5.76194C3.54545 5.59251 4.01384 5.56135 4.45815 5.67305C4.86013 5.256 5.55237 4.82714 6.02976 4.59066C5.45378 4.21224 4.78564 3.9962 4.09631 3.9655C3.40697 3.9348 2.72216 4.09056 2.11456 4.41627C1.50696 4.74198 0.99926 5.22545 0.645355 5.81539C0.291448 6.40532 0.104546 7.07972 0.104492 7.76691V7.77037C0.104492 7.78089 0.104492 7.79146 0.104492 7.80199V7.81159C0.108824 8.25655 0.191703 8.69737 0.349345 9.11377C0.978887 9.22135 1.62108 9.23428 2.25447 9.15203Z" fill="white"></path><path d="M7.7461 7.76691V7.76151C7.7461 7.74138 7.7461 7.72103 7.7461 7.70091C7.7461 7.69209 7.7461 7.68323 7.7461 7.67418C7.7461 7.6565 7.7461 7.6386 7.74437 7.62092C7.74265 7.60329 7.74312 7.59175 7.74265 7.57726C7.74265 7.57458 7.74265 7.57163 7.74265 7.56891C7.70341 6.79583 7.42728 6.05326 6.95142 5.44121H6.94919L6.92459 5.40881C6.49919 5.57612 5.8715 5.92403 5.46581 6.24295C5.76901 6.54581 5.97524 6.93147 6.05844 7.35106C6.14163 7.77069 6.09806 8.20546 5.93321 8.6004C5.76836 8.99534 5.48962 9.33277 5.1323 9.56995C4.77493 9.80718 4.35497 9.93355 3.9255 9.93313C3.82165 9.93309 3.71793 9.92575 3.61513 9.91107C2.85914 10.164 1.80805 10.3308 1.07324 10.3016C1.58848 10.8772 2.26714 11.2833 3.01933 11.4661C3.77151 11.649 4.56172 11.5999 5.28524 11.3254C6.00882 11.0509 6.63158 10.564 7.07102 9.92917C7.51047 9.29427 7.74591 8.54146 7.7461 7.77032V7.76691Z" fill="white"></path></g><defs><clipPath id="clip0_6542_42183"><rect width="72.0784" height="12" fill="white" transform="translate(0.104492)"></rect></clipPath></defs></svg> 