<?xml version="1.0" encoding="UTF-8"?> <svg xmlns="http://www.w3.org/2000/svg" width="114" height="36" viewBox="0 0 114 36" fill="none"><g clip-path="url(#clip0_6352_26525)"><path d="M48.6209 7.98573C49.2159 7.98573 49.4142 8.1821 49.4142 8.77119V11.3894C49.4142 12.7312 48.9184 13.8112 47.9268 14.6294C46.9022 15.4803 45.5139 15.9057 43.7291 15.9057C40.1263 15.9057 38.0439 13.9748 38.0439 10.8003V6.93846C38.0439 3.73119 40.1263 1.83301 43.7291 1.83301C46.5386 1.83301 48.3235 2.91301 49.1167 5.04028C49.315 5.53119 49.1498 5.85846 48.6209 6.0221L47.1335 6.54573C46.5716 6.70937 46.3403 6.61119 46.1419 6.05483C45.7784 5.13846 44.9851 4.68028 43.7291 4.68028C42.0434 4.68028 41.184 5.43301 41.184 6.93846V10.8003C41.184 12.3057 42.0434 13.0585 43.7291 13.0585C45.3156 13.0585 46.3072 12.3712 46.3072 11.3894V10.7021H43.9935C43.3985 10.7021 43.2002 10.5057 43.2002 9.91664V8.73846C43.2002 8.14937 43.3985 7.95301 43.9935 7.95301H48.6209V7.98573Z" fill="#00B0A8"></path><path d="M55.0662 5.43262C57.9418 5.43262 59.3631 6.77444 59.3631 9.45807V14.3017C59.3631 14.9563 59.1978 15.1853 58.6359 15.4144C57.8757 15.7417 56.6527 15.9381 55.0001 15.9381C53.3144 15.9381 52.1905 15.6763 51.5625 15.1853C50.9345 14.6617 50.604 13.8763 50.604 12.7963C50.604 10.4399 51.86 9.68716 55.0662 9.68716C55.562 9.68716 56.0247 9.71989 56.4213 9.71989V9.29444C56.4213 8.37807 55.9255 7.88716 54.934 7.88716C54.2068 7.88716 53.711 8.11625 53.3474 8.57444C53.0169 8.99989 52.9177 9.09807 52.3558 8.86898L51.2981 8.44353C50.8023 8.24716 50.6701 7.91989 50.9015 7.42898C51.6617 6.08716 53.0169 5.43262 55.0662 5.43262ZM56.4544 11.8799C56.3552 11.8799 56.0908 11.8799 55.6942 11.8472C55.2975 11.8144 55.0331 11.8144 54.8348 11.8144C53.8101 11.8144 53.5127 12.1417 53.5127 12.7308C53.5127 13.3526 53.8102 13.6472 54.8017 13.6472C55.4628 13.6472 55.9916 13.6144 56.3222 13.5817C56.4213 13.549 56.4544 13.5163 56.4544 13.4508V11.8799Z" fill="#00B0A8"></path><path d="M68.1883 13.0589C68.7171 13.0589 68.9154 13.2553 68.9154 13.7789V14.9244C68.9154 15.448 68.7502 15.6444 68.1883 15.6444H61.4124C60.8835 15.6444 60.7183 15.4808 60.7183 14.9244V13.8117C60.7183 13.5171 60.7844 13.288 60.9496 13.0917L65.0482 8.28077H61.5115C60.9827 8.28077 60.8174 8.0844 60.8174 7.56077V6.41531C60.8174 5.89168 60.9827 5.69531 61.5115 5.69531H68.0891C68.6179 5.69531 68.7832 5.85895 68.7832 6.41531V7.52804C68.7832 7.78986 68.684 8.05168 68.4857 8.28077L64.321 13.0262H68.1883V13.0589Z" fill="#00B0A8"></path><path d="M70.1053 9.65444C70.1053 6.90534 71.7249 5.43262 74.7327 5.43262C77.7736 5.43262 79.3602 7.10171 79.3602 9.45807V10.6035C79.3602 11.2253 79.0296 11.5526 78.3686 11.5526H73.014V12.0435C73.014 13.0581 73.5759 13.549 74.7327 13.549C75.5591 13.549 76.1871 13.2872 76.5507 12.7963C76.8812 12.3381 77.1126 12.2726 77.6745 12.5344L78.6 13.0253C79.0958 13.2872 79.1949 13.6472 78.8974 14.1381C78.1372 15.3163 76.749 15.9053 74.6666 15.9053C71.5266 15.9053 70.0723 14.2363 70.0723 11.6835V9.65444H70.1053ZM76.4185 9.19625C76.4185 8.21444 75.8566 7.72353 74.6997 7.72353C73.5759 7.72353 72.9809 8.21444 72.9809 9.19625V9.4908H76.3854V9.19625H76.4185Z" fill="#00B0A8"></path><path d="M83.9877 3.43605C84.5166 3.43605 84.6818 3.59968 84.6818 4.15605V5.72696H86.4667C86.9955 5.72696 87.1608 5.89059 87.1608 6.44696V7.59241C87.1608 8.11605 86.9955 8.31241 86.4667 8.31241H84.6818V11.4542C84.6818 12.8942 85.1115 13.2215 86.4336 13.2215C86.9625 13.2215 87.1277 13.3851 87.1277 13.9415V15.1524C87.1277 15.7088 86.9625 15.8724 86.4336 15.8724C84.7479 15.9379 83.558 15.6106 82.8308 14.9888C82.1037 14.367 81.7401 13.2215 81.7401 11.5524V8.27968H80.7154C80.1866 8.27968 79.9883 8.11605 79.9883 7.55968V6.41423C79.9883 5.89059 80.1535 5.69423 80.7154 5.69423H81.7401V4.12332C81.7401 3.59968 81.9384 3.40332 82.4673 3.40332H83.9877V3.43605Z" fill="#00B0A8"></path><path d="M92.5486 5.43262C95.4242 5.43262 96.8455 6.77444 96.8455 9.45807V14.3017C96.8455 14.9563 96.6802 15.1853 96.1183 15.4144C95.3581 15.7417 94.1351 15.9381 92.4825 15.9381C90.7968 15.9381 89.673 15.6763 89.045 15.1853C88.417 14.6617 88.0864 13.8763 88.0864 12.7963C88.0864 10.4399 89.3424 9.68716 92.5486 9.68716C93.0444 9.68716 93.5071 9.71989 93.9038 9.71989V9.29444C93.9038 8.37807 93.408 7.88716 92.4164 7.88716C91.6892 7.88716 91.1934 8.11625 90.8298 8.57444C90.4993 8.99989 90.4001 9.09807 89.8382 8.86898L88.7805 8.44353C88.2847 8.24716 88.1525 7.91989 88.3839 7.42898C89.1441 6.08716 90.5324 5.43262 92.5486 5.43262ZM93.9368 11.8799C93.8377 11.8799 93.5732 11.8799 93.1766 11.8472C92.78 11.8144 92.5155 11.8144 92.3172 11.8144C91.2926 11.8144 90.9951 12.1417 90.9951 12.7308C90.9951 13.3526 91.2926 13.6472 92.2842 13.6472C92.9452 13.6472 93.4741 13.6144 93.8046 13.5817C93.9038 13.549 93.9368 13.5163 93.9368 13.4508V11.8799Z" fill="#00B0A8"></path><path d="M47.0674 18.3271C47.3318 18.3271 47.431 18.4581 47.431 18.7199V19.2435C47.431 19.5053 47.3318 19.6362 47.0674 19.6362H40.2916V24.349H46.208C46.4725 24.349 46.5716 24.4799 46.5716 24.7417V25.2653C46.5716 25.5271 46.4725 25.6581 46.208 25.6581H40.2916V30.5671H47.3319C47.5963 30.5671 47.6954 30.6981 47.6954 30.9599V31.4835C47.6954 31.7453 47.5963 31.8762 47.3319 31.8762H39.3C39.0025 31.8762 38.9033 31.7781 38.9033 31.4835V18.7199C38.9033 18.4253 39.0025 18.3271 39.3 18.3271H47.0674Z" fill="#848384"></path><path d="M53.1162 21.7637C55.0994 21.7637 56.4215 22.4509 57.0495 23.8255C57.1817 24.0546 57.1156 24.2182 56.8843 24.3164L56.3885 24.5128C56.1902 24.6109 56.0249 24.5455 55.8927 24.3491C55.463 23.3673 54.7358 22.9091 53.1162 22.9091C51.4305 22.9091 50.6042 23.4655 50.6042 24.5782C50.6703 25.4946 50.9678 25.8873 51.761 26.1164C52.3229 26.28 52.6535 26.3128 53.4798 26.3782C54.6367 26.4764 55.3638 26.64 56.124 27.0328C56.8843 27.4255 57.2478 28.1455 57.2478 29.1928C57.2478 31.0255 55.8927 32.1055 53.3145 32.1055C51.1661 32.1055 49.7779 31.32 49.1498 29.7491C49.0507 29.52 49.1168 29.3564 49.3482 29.2909L49.844 29.1273C50.0423 29.0619 50.2075 29.1273 50.3067 29.3237C50.7364 30.4364 51.6949 30.9928 53.2484 30.9928C55.0663 30.9928 55.9588 30.4364 55.9588 29.2582C55.9588 28.0146 55.0994 27.72 53.1823 27.5237C52.1907 27.4255 51.7941 27.36 51.0008 27.1309C50.6042 27 50.2737 26.8364 50.0753 26.64C49.6456 26.2473 49.2821 25.56 49.2821 24.6437C49.3482 22.8437 50.6703 21.7637 53.1162 21.7637Z" fill="#848384"></path><path d="M63.1972 21.7637C65.8745 21.7637 67.1966 23.04 67.1966 25.56V28.3091C67.1966 30.8291 65.8745 32.1055 63.2633 32.1055C62.437 32.1055 61.4785 31.9091 60.3877 31.4509V35.6728C60.3877 35.9019 60.2885 36 60.0572 36H59.4292C59.1978 36 59.0986 35.9019 59.0986 35.6728V23.3673C59.0986 22.7455 59.2639 22.5491 59.8589 22.2873C60.7843 21.96 61.8751 21.7637 63.1972 21.7637ZM65.9076 25.5928C65.9076 23.8255 64.949 22.9419 63.0319 22.9419C62.1726 22.9419 61.4123 23.04 60.7182 23.3019C60.3877 23.4328 60.3547 23.4982 60.3547 23.8255V30.2728C61.2801 30.6982 62.2056 30.9273 63.1311 30.9273C64.949 30.9273 65.8745 30.0437 65.8745 28.2764V25.5928H65.9076Z" fill="#848384"></path><path d="M68.8494 25.2655C68.8494 23.0728 70.4359 21.7637 73.0471 21.7637C75.6913 21.7637 77.2779 23.0728 77.2779 25.2655V28.6037C77.2779 30.7964 75.6583 32.0728 73.0471 32.0728C70.4359 32.0728 68.8494 30.7309 68.8494 28.6037V25.2655ZM75.9888 25.2655C75.9888 23.8255 74.865 22.9091 73.0471 22.9091C71.2622 22.9091 70.1384 23.7928 70.1384 25.2655V28.6037C70.1384 30.0437 71.2953 30.9273 73.0471 30.9273C74.865 30.9273 75.9888 30.0437 75.9888 28.6037V25.2655Z" fill="#848384"></path><path d="M83.9547 21.7642C84.186 21.7642 84.2852 21.8624 84.2852 22.0914V22.5824C84.2852 22.8114 84.186 22.9096 83.9547 22.9096H83.2936C82.3351 22.9096 81.4757 23.0405 80.7485 23.3024C80.5502 23.4005 80.418 23.5642 80.418 23.7933V31.4514C80.418 31.6805 80.3188 31.7787 80.0874 31.7787H79.4594C79.2281 31.7787 79.1289 31.6805 79.1289 31.4514V23.4005C79.1289 22.8114 79.2942 22.5824 79.8561 22.3205C80.8477 21.9605 82.0045 21.7642 83.3266 21.7314H83.9547V21.7642Z" fill="#848384"></path><path d="M88.2847 19.7676C88.5822 19.7676 88.6153 19.8658 88.6153 20.0949V22.0258H91.3917C91.6231 22.0258 91.7222 22.1567 91.7222 22.353V22.8439C91.7222 23.073 91.6231 23.1712 91.3917 23.1712H88.6153V28.113C88.6153 29.2258 88.8136 29.9458 89.1771 30.273C89.5407 30.633 90.2679 30.7967 91.3587 30.7967C91.59 30.7967 91.6892 30.8948 91.6892 31.1567V31.7458C91.6892 32.0076 91.59 32.073 91.3587 32.073C89.8713 32.1058 88.8136 31.8439 88.2186 31.2876C87.6237 30.7312 87.3262 29.7167 87.3262 28.2112V23.2367H85.5083C85.2769 23.2367 85.1777 23.1385 85.1777 22.9094V22.4185C85.1777 22.1894 85.2769 22.0912 85.5083 22.0912H87.3262V20.1603C87.3262 19.9312 87.4253 19.833 87.6567 19.833H88.2847V19.7676Z" fill="#848384"></path><path d="M93.9696 18.5566C94.4985 18.5566 94.6968 18.7203 94.6968 19.2439V19.3748C94.6968 19.8985 94.5315 20.0948 93.9696 20.0948H93.8705C93.3416 20.0948 93.1433 19.9312 93.1433 19.3748V19.2439C93.1433 18.7203 93.3086 18.5566 93.8705 18.5566H93.9696ZM94.201 22.0257C94.4324 22.0257 94.5315 22.1566 94.5315 22.353V31.4512C94.5315 31.6803 94.3993 31.7785 94.201 31.7785H93.573C93.3416 31.7785 93.2425 31.6803 93.2425 31.4512V22.3857C93.2425 22.1566 93.3747 22.0585 93.573 22.0585H94.201V22.0257Z" fill="#848384"></path><path d="M104.976 22.0254C105.307 22.0254 105.373 22.0908 105.241 22.4181L101.407 31.549C101.308 31.7454 101.142 31.8763 100.911 31.8763H100.547C100.283 31.8763 100.151 31.7781 100.052 31.549L96.2174 22.4508C96.0852 22.1236 96.1513 22.0581 96.5148 22.0581H96.9445C97.3412 22.0581 97.4403 22.1236 97.5395 22.3854L100.184 28.669C100.283 28.9308 100.382 29.2254 100.514 29.6508C100.613 30.0436 100.713 30.2727 100.713 30.3381H100.779C100.812 30.2727 100.878 30.0436 100.977 29.6508C101.076 29.2581 101.175 28.9308 101.274 28.7018L103.886 22.4181C103.985 22.1236 104.084 22.0908 104.514 22.0908H104.976V22.0254Z" fill="#848384"></path><path d="M110.166 21.7637C113.008 21.7637 114 23.2364 114 25.5273V30.5019C114 31.1564 113.835 31.3528 113.306 31.5819C112.546 31.9091 111.488 32.0728 110.1 32.0728C108.513 32.0728 107.422 31.8437 106.827 31.3528C106.233 30.8619 105.935 30.1419 105.935 29.1273C105.935 26.9673 107.092 26.1819 110.166 26.1819C110.695 26.1819 111.521 26.2473 112.678 26.3782V25.4946C112.678 23.8255 112.017 22.8764 110.067 22.8764C108.811 22.8764 107.885 23.3346 107.389 24.2509C107.257 24.4473 107.092 24.5128 106.894 24.4146L106.431 24.2182C106.166 24.12 106.133 23.9564 106.233 23.7273C107.026 22.4182 108.315 21.7637 110.166 21.7637ZM112.711 27.4255C111.554 27.3273 110.662 27.2619 110.067 27.2619C108.05 27.2619 107.29 27.8182 107.29 29.1273C107.29 30.4364 107.885 31.0255 110.034 31.0255C111.025 31.0255 111.785 30.9273 112.347 30.7309C112.645 30.6 112.711 30.5346 112.711 30.1746V27.4255Z" fill="#848384"></path><path d="M25.3517 14.3673C24.7237 14.3673 24.2279 14.8582 24.2279 15.48C24.2279 15.7745 24.2609 19.6691 24.1287 21.8618C23.9635 24.7091 22.1125 26.9673 19.2369 27.36C17.1545 27.6545 14.3781 27.5891 12.2296 27.3927C9.28791 27.1309 7.13946 24.9709 7.00725 22.1236C6.90809 21.7309 6.74282 17.1491 6.94114 12.5018C7.0403 10.6036 7.89968 9.06545 9.1557 8.11636C10.577 7.03636 11.9652 6.80727 15.5349 6.80727C19.2699 6.80727 22.443 7.33091 23.5668 8.77091C23.7321 8.96727 23.9635 9.09818 24.2279 9.13091C24.4923 9.16364 24.7567 9.06545 24.9551 8.90182L28.7892 5.49818C29.1528 5.17091 29.2189 4.61454 28.9214 4.25454C27.2357 2.09455 24.922 0.72 22.3108 0.392727C17.8487 -0.130909 13.6509 -0.130909 8.95738 0.392727C4.26384 0.916364 0.132212 4.94182 0.132212 10.2109C0.132212 10.7018 0 13.9418 0 17.2145C0 20.6836 0.132212 24.1527 0.132212 24.3164C0.198318 29.0618 3.735 33.4473 9.1557 34.0691C13.9484 34.5927 18.7741 34.4945 22.3439 34.0364C26.806 33.4473 30.8716 29.88 31.0038 24.2182C31.0699 21.4036 31.169 18.36 31.136 15.5127C31.136 14.9236 30.6402 14.4327 30.0122 14.4327C28.2273 14.3673 25.3517 14.3673 25.3517 14.3673Z" fill="#01676E"></path><path d="M20.4599 17.1825C20.4599 15.2844 20.3938 14.6625 20.3607 13.8116C20.3277 12.4698 19.4683 10.8989 17.2207 10.7025C16.1299 10.6044 15.0061 10.6044 13.9484 10.7025C12.1636 10.8662 10.9075 11.9462 10.8084 13.8444C10.7423 14.9571 10.7092 16.0698 10.7092 17.2153C10.7092 18.2298 10.7753 20.3244 10.8084 20.6516C10.9737 22.0916 11.8661 23.4989 13.9484 23.6953C15.1053 23.7935 16.2291 23.7935 17.2207 23.6953C19.3691 23.4989 20.1624 22.0262 20.3607 20.5862C20.3607 20.3244 20.4599 17.7389 20.4599 17.1825Z" fill="#00B0A8"></path><path d="M14.0806 20.6511C14.0476 20.3239 13.9815 18.2293 13.9815 17.2148C13.9815 16.0693 14.0145 14.9566 14.0806 13.8439C14.1798 11.9784 15.4358 10.8984 17.2207 10.7348C16.1299 10.6366 15.0061 10.6366 13.9484 10.7348C12.1636 10.8984 10.9075 11.9784 10.8084 13.8766C10.7423 14.9893 10.7092 16.102 10.7092 17.2475C10.7092 18.262 10.7753 20.3566 10.8084 20.6839C10.9737 22.1239 11.8661 23.5311 13.9484 23.7275C15.0722 23.8257 16.2291 23.8257 17.2207 23.7275C15.1053 23.4657 14.2129 22.0584 14.0806 20.6511Z" fill="#01676E"></path></g><defs><clipPath id="clip0_6352_26525"><rect width="114" height="36" fill="white"></rect></clipPath></defs></svg> 